<svg width="20" height="20" viewBox="0 0 20 20" fill="none" xmlns="http://www.w3.org/2000/svg">
<g clip-path="url(#clip0_2_68)">
<path d="M3.33332 15H7.91666V16.0417C7.91666 16.6495 7.67521 17.2323 7.24544 17.6621C6.81567 18.0919 6.23278 18.3333 5.62499 18.3333C5.0172 18.3333 4.43431 18.0919 4.00454 17.6621C3.57477 17.2323 3.33332 16.6495 3.33332 16.0417V15ZM6.66666 5.1C8.33332 5.1 9.16666 7.5 9.16666 9.16667C9.16666 10 8.74999 10.8333 8.33332 12.0833L7.91666 13.3333H3.33332C3.33332 12.5 2.91666 11.25 2.91666 9.16667C2.91666 7.08333 4.58166 5.1 6.66666 5.1ZM16.7117 11.7483L16.5308 12.7742C16.4253 13.3728 16.0863 13.905 15.5884 14.2536C15.0905 14.6023 14.4744 14.7389 13.8758 14.6333C13.2772 14.5278 12.745 14.1888 12.3964 13.6909C12.0477 13.193 11.9111 12.5769 12.0167 11.9783L12.1983 10.9533L16.7117 11.7483ZM15.1483 1.42083C17.2017 1.7825 18.4967 4.02416 18.135 6.07583C17.7733 8.12833 17.1458 9.28666 17.0017 10.1075L12.4875 9.31166L12.2942 8.00833C12.1008 6.705 11.8358 5.81166 11.98 4.99166C12.2692 3.35 13.5067 1.13166 15.1483 1.42083Z" fill="#424242"/>
</g>
<defs>
<clipPath id="clip0_2_68">
<rect width="20" height="20" fill="white"/>
</clipPath>
</defs>
</svg>
