<svg width="30" height="29" viewBox="0 0 30 29" fill="none" xmlns="http://www.w3.org/2000/svg">
<path d="M15 3.98684C12.0296 3.98684 9.18081 5.14022 7.0804 7.19325C4.98 9.24628 3.8 12.0308 3.8 14.9342H8C8.74261 14.9342 9.4548 15.2226 9.9799 15.7358C10.505 16.2491 10.8 16.9452 10.8 17.6711V24.5132C10.8 25.239 10.505 25.9351 9.9799 26.4484C9.4548 26.9617 8.74261 27.25 8 27.25H3.8C3.05739 27.25 2.3452 26.9617 1.8201 26.4484C1.295 25.9351 1 25.239 1 24.5132V14.9342C1 7.37642 7.2678 1.25 15 1.25C22.7322 1.25 29 7.37642 29 14.9342V24.5132C29 25.239 28.705 25.9351 28.1799 26.4484C27.6548 26.9617 26.9426 27.25 26.2 27.25H22C21.2574 27.25 20.5452 26.9617 20.0201 26.4484C19.495 25.9351 19.2 25.239 19.2 24.5132V17.6711C19.2 16.9452 19.495 16.2491 20.0201 15.7358C20.5452 15.2226 21.2574 14.9342 22 14.9342H26.2C26.2 12.0308 25.02 9.24628 22.9196 7.19325C20.8192 5.14022 17.9704 3.98684 15 3.98684ZM3.8 17.6711V24.5132H8V17.6711H3.8ZM22 17.6711V24.5132H26.2V17.6711H22Z" fill="#424242"/>
</svg>
