<svg width="24" height="24" viewBox="0 0 24 24" fill="none" xmlns="http://www.w3.org/2000/svg">
<path fill-rule="evenodd" clip-rule="evenodd" d="M12 20C12 20 18.5454 15.6364 18.5454 10.5455C18.5454 8.80949 17.8558 7.14463 16.6283 5.91712C15.4008 4.68961 13.7359 4 12 4C10.264 4 8.59916 4.68961 7.37165 5.91712C6.14414 7.14463 5.45453 8.80949 5.45453 10.5455C5.45453 15.6364 12 20 12 20ZM14.1818 10.5454C14.1818 11.7504 13.205 12.7273 12 12.7273C10.795 12.7273 9.81817 11.7504 9.81817 10.5454C9.81817 9.34045 10.795 8.36362 12 8.36362C13.205 8.36362 14.1818 9.34045 14.1818 10.5454Z" fill="#424242"/>
</svg>
